<?xml version="1.0" encoding="utf-8"?>
<!-- Generator: Adobe Illustrator 19.0.0, SVG Export Plug-In . SVG Version: 6.00 Build 0)  -->
<svg version="1.1" id="Capa_1" xmlns="http://www.w3.org/2000/svg" xmlns:xlink="http://www.w3.org/1999/xlink" x="0px" y="0px"
	 viewBox="0 0 256 256" style="enable-background:new 0 0 256 256;" xml:space="preserve">
<style type="text/css">
	.st0{fill:#F7931E;}
	.st1{fill:#FFFFFF;}
	.st2{fill:#F15A24;}
</style>
<g id="XMLID_15_">
	<rect id="XMLID_1_" class="st0" width="256" height="256"/>
	<rect id="XMLID_2_" x="20" y="27.8" class="st1" width="220.5" height="10.5"/>
	<rect id="XMLID_4_" x="20" y="55.3" class="st1" width="220.5" height="10.5"/>
	<rect id="XMLID_5_" x="20" y="82.9" class="st1" width="220.5" height="10.5"/>
	<rect id="XMLID_6_" x="20" y="110.5" class="st1" width="178.3" height="10.5"/>
	<path id="XMLID_10_" class="st2" d="M231.4,245.3h-208c-4.7,0-8.4-3.8-8.4-8.4v-82.5c0-4.7,3.8-8.4,8.4-8.4h208
		c4.7,0,8.4,3.8,8.4,8.4v82.5C239.8,241.5,236.1,245.3,231.4,245.3z"/>
	<g id="XMLID_14_">
		<g id="XMLID_7_">
			<circle id="XMLID_3_" class="st1" cx="64.7" cy="174.1" r="20.6"/>
			<path id="XMLID_8_" class="st1" d="M98.7,223.9c0,14.1-15.2,14.6-34,14.6s-34-0.5-34-14.6s15.2-25.6,34-25.6
				S98.7,209.7,98.7,223.9z"/>
		</g>
		<g id="XMLID_13_">
			<rect id="XMLID_9_" x="130.3" y="172" class="st1" width="94.8" height="10"/>
			<rect id="XMLID_11_" x="130.3" y="189.6" class="st1" width="94.8" height="10"/>
			<rect id="XMLID_12_" x="130.3" y="208.4" class="st1" width="42.8" height="10"/>
		</g>
	</g>
</g>
</svg>
